<svg xmlns="http://www.w3.org/2000/svg" viewBox="0 0 24 24" fill="none">
  <g stroke="currentColor" stroke-width="1.55" stroke-linecap="round" stroke-linejoin="round">
    <!-- Shin-chan's rounded cheeks, small ears and chin -->
    <path d="M5.2 9.5C5.5 5.9 8.1 3.4 12.3 3.4c4.2 0 6.7 2.5 6.8 6.1 1.8-.2 2.9.8 2.7 2.4-.1 1.7-1.5 2.7-3.3 2.4-1.1 2.6-3.5 4-7.1 4-3.9 0-6.5-1.7-7.2-4.5-1.5-.4-2.3-1.5-2-2.7.3-1.3 1.4-1.9 3-1.6Z"/>

    <!-- Signature bowl-cut silhouette -->
    <path fill="currentColor" stroke="none" d="M5.3 9.2C5.6 5.5 8.2 2.5 12.4 2.5c4.4 0 6.8 2.8 6.8 6.7l-1.8-1.6-1.4.8-1.8-1.6-1.9 1.5-2-1.8-2 1.6-1.6-1.2-1.4 2.3Z"/>

    <!-- Thick eyebrows -->
    <path stroke-width="2" d="M7.1 9.4c1-.8 2.1-.9 3.1-.2M13.1 9.2c1.1-.7 2.2-.6 3.2.2"/>

    <!-- Large eyes and pupils -->
    <ellipse cx="8.8" cy="11.7" rx="1.75" ry="2"/>
    <ellipse cx="14.7" cy="11.7" rx="1.75" ry="2"/>
    <circle cx="9.15" cy="12.05" r=".55" fill="currentColor" stroke="none"/>
    <circle cx="15.05" cy="12.05" r=".55" fill="currentColor" stroke="none"/>

    <!-- Tiny nose and open mischievous mouth -->
    <path d="M11.7 12.2c-.4.3-.5.7-.1 1"/>
    <path d="M9.4 15.1c1.1-.8 2.5-.8 3.5.1-.8 1.2-2.5 1.2-3.5-.1Z"/>

    <!-- Red-shirt collar translated to a clean monochrome cue -->
    <path d="M7.3 18.1 6.5 21h10.8l-.8-3M9.1 18.4l2.4 1.8 2.5-1.9"/>
  </g>
</svg>
